<?xml version="1.0" encoding="UTF-8"?><svg xmlns="http://www.w3.org/2000/svg" height="144" version="1.0" viewBox="0 0 252 144" width="252"><defs><clipPath id="a"><path d="M 42.496094 43 L 89 43 L 89 93.511719 L 42.496094 93.511719 Z M 42.496094 43"/></clipPath><clipPath id="b"><path d="M 52 82 L 80 82 L 80 93.511719 L 52 93.511719 Z M 52 82"/></clipPath></defs><g clip-path="url(#a)"><path d="M 80.136719 57.972656 C 79.742188 58.371094 79.328125 58.789062 78.921875 59.203125 L 69.804688 58.621094 C 72.390625 55.847656 74.980469 53.332031 77.460938 51.304688 C 77.722656 51.09375 77.761719 50.707031 77.546875 50.445312 C 77.328125 50.183594 76.941406 50.148438 76.679688 50.363281 C 73.898438 52.632812 70.988281 55.5 68.09375 58.660156 C 68.042969 58.699219 68.003906 58.742188 67.96875 58.796875 C 66.324219 60.597656 64.6875 62.492188 63.078125 64.429688 L 60.667969 55.753906 C 66.394531 49.300781 74.125 43.824219 83.234375 45.382812 C 85.84375 45.828125 87.332031 46.566406 87.660156 47.582031 C 88.34375 49.695312 84.542969 53.53125 80.136719 57.972656 Z M 72.171875 66.535156 C 70.710938 68.316406 69.441406 69.933594 68.304688 71.382812 C 62.273438 79.0625 60.171875 81.722656 52.925781 79.675781 C 54.488281 77.496094 56.191406 75.179688 57.988281 72.816406 L 64.582031 72.960938 C 64.585938 72.960938 64.589844 72.960938 64.59375 72.960938 C 64.929688 72.960938 65.203125 72.695312 65.210938 72.359375 C 65.21875 72.023438 64.949219 71.742188 64.609375 71.738281 L 58.90625 71.613281 C 62.011719 67.585938 65.363281 63.480469 68.734375 59.777344 L 77.792969 60.355469 C 75.90625 62.289062 73.957031 64.359375 72.171875 66.535156 Z M 53.152344 66.253906 C 54.792969 63.453125 57.003906 60.085938 59.703125 56.871094 L 62.125 65.585938 C 58.53125 69.980469 55.125 74.519531 52.191406 78.597656 C 51.179688 76.535156 49.792969 71.988281 53.152344 66.253906 Z M 88.832031 47.207031 C 88.339844 45.683594 86.628906 44.722656 83.441406 44.179688 C 73.730469 42.519531 65.59375 48.316406 59.632812 55.074219 C 59.542969 55.132812 59.476562 55.210938 59.433594 55.300781 C 56.371094 58.808594 53.894531 62.554688 52.089844 65.640625 C 48.164062 72.339844 50.3125 77.71875 51.402344 79.703125 C 46.253906 86.921875 42.757812 92.433594 42.679688 92.5625 C 42.496094 92.847656 42.585938 93.226562 42.875 93.402344 C 42.972656 93.46875 43.089844 93.496094 43.199219 93.496094 C 43.402344 93.496094 43.605469 93.394531 43.722656 93.210938 C 43.800781 93.085938 47.183594 87.75 52.183594 80.71875 C 52.199219 80.726562 52.207031 80.746094 52.226562 80.75 C 54.066406 81.296875 55.628906 81.5625 57.007812 81.5625 C 61.867188 81.5625 64.476562 78.242188 69.273438 72.132812 C 70.410156 70.691406 71.671875 69.082031 73.128906 67.308594 C 75.628906 64.257812 78.488281 61.375 81.011719 58.832031 C 86.082031 53.71875 89.746094 50.027344 88.832031 47.207031" fill="#4e9096"/></g><g clip-path="url(#b)"><path d="M 78.027344 88.285156 C 74.015625 91.160156 71.300781 91.285156 70.101562 90.449219 C 69.46875 90.007812 69.238281 89.289062 69.472656 88.472656 C 70.40625 85.222656 69.535156 83.855469 68.636719 83.28125 C 66.894531 82.164062 63.625 83.230469 60.324219 86 C 55.539062 90.015625 52.425781 92.03125 52.394531 92.050781 C 52.109375 92.234375 52.027344 92.613281 52.214844 92.894531 C 52.332031 93.074219 52.53125 93.175781 52.730469 93.175781 C 52.847656 93.175781 52.960938 93.140625 53.066406 93.074219 C 53.195312 92.992188 56.265625 91.003906 61.121094 86.933594 C 64.230469 84.324219 66.921875 83.636719 67.96875 84.308594 C 68.742188 84.804688 68.855469 86.164062 68.289062 88.136719 C 67.914062 89.441406 68.335938 90.714844 69.394531 91.449219 C 71.40625 92.851562 74.902344 92.035156 78.75 89.277344 C 79.023438 89.082031 79.085938 88.699219 78.886719 88.425781 C 78.6875 88.148438 78.300781 88.085938 78.027344 88.285156" fill="#4e9096"/></g><g fill="#4d4d4d"><g><g><path d="M 8.511719 -26.316406 L 8.511719 -0.464844 C 8.511719 -0.257812 8.71875 0 9.082031 0 L 15.738281 0 C 16.097656 0 16.355469 -0.257812 16.355469 -0.464844 L 16.355469 -26.316406 Z M 0.566406 -34.210938 L 24.25 -34.210938 C 24.613281 -34.210938 24.820312 -34.414062 24.820312 -34.671875 L 24.820312 -40.8125 C 24.820312 -41.019531 24.613281 -41.277344 24.25 -41.277344 L 0.566406 -41.277344 C 0.257812 -41.277344 0 -41.019531 0 -40.8125 L 0 -34.671875 C 0 -34.414062 0.257812 -34.210938 0.566406 -34.210938 Z M 0.566406 -34.210938" transform="translate(103.405 93.237)"/></g></g></g><g fill="#4d4d4d"><g><g><path d="M 20.121094 -28.996094 C 20.121094 -24.457031 14.035156 -24.457031 14.035156 -24.457031 L 7.84375 -24.457031 L 7.84375 -33.898438 L 14.035156 -33.898438 C 14.035156 -33.898438 20.121094 -33.949219 20.121094 -28.996094 Z M 28.015625 -29.460938 C 28.015625 -41.585938 14.035156 -41.277344 14.035156 -41.277344 L 0.566406 -41.277344 C 0.257812 -41.277344 0 -41.019531 0 -40.8125 L 0 -16.769531 L 14.035156 -16.769531 C 14.035156 -16.769531 20.691406 -17.078125 20.691406 -12.230469 C 20.691406 -8.253906 16.613281 -7.535156 14.035156 -7.535156 L 7.894531 -7.535156 L 7.894531 0 L 14.035156 0 C 16.820312 0 28.585938 -0.515625 28.585938 -12.023438 C 28.585938 -12.023438 28.84375 -18.421875 22.289062 -20.640625 C 25.4375 -21.929688 28.015625 -24.664062 28.015625 -29.460938 Z M 28.015625 -29.460938" transform="translate(129.444 93.237)"/></g></g></g><g fill="#4d4d4d"><g><g><path d="M 8.511719 -26.316406 L 8.511719 -0.464844 C 8.511719 -0.257812 8.71875 0 9.082031 0 L 15.738281 0 C 16.097656 0 16.355469 -0.257812 16.355469 -0.464844 L 16.355469 -26.316406 Z M 0.566406 -34.210938 L 24.25 -34.210938 C 24.613281 -34.210938 24.820312 -34.414062 24.820312 -34.671875 L 24.820312 -40.8125 C 24.820312 -41.019531 24.613281 -41.277344 24.25 -41.277344 L 0.566406 -41.277344 C 0.257812 -41.277344 0 -41.019531 0 -40.8125 L 0 -34.671875 C 0 -34.414062 0.257812 -34.210938 0.566406 -34.210938 Z M 0.566406 -34.210938" transform="translate(159.453 93.237)"/></g></g></g><path d="M 0.000100165 -0.000435778 L 36.794343 -0.000435778" fill="none" stroke="#000" transform="matrix(0 1.5086 -1.5 0 96.652 42.515)"/></svg>